{
  "accessors": [
    {
      "bufferView": 2,
      "componentType": 5126,
      "count": 3072,
      "max": [
        0.7905009984970093,
        0.029454000294208527,
        1.1015410423278809
      ],
      "min": [
        -0.8288990259170532,
        -1.3541280031204224,
        -0.05206200107932091
      ],
      "type": "VEC3"
    },
    {
      "bufferView": 2,
      "byteOffset": 36864,
      "componentType": 5126,
      "count": 3072,
      "max": [
        0.999358057975769,
        0.9994161128997803,
        0.9999934434890747
      ],
      "min": [
        -0.9993352890014648,
        -0.999413013458252,
        -0.9999954700469971
      ],
      "type": "VEC3"
    },
    {
      "bufferView": 1,
      "componentType": 5126,
      "count": 3072,
      "max": [
        0.29614999890327454,
        0.9979919791221619
      ],
      "min": [
        5.400000009103678e-05,
        0.004540000110864639
      ],
      "type": "VEC2"
    },
    {
      "bufferView": 0,
      "componentType": 5125,
      "count": 4608,
      "type": "SCALAR"
    },
    {
      "bufferView": 2,
      "byteOffset": 73728,
      "componentType": 5126,
      "count": 13022,
      "max": [
        1.1275759935379028,
        0.11809799820184708,
        5.840746879577637
      ],
      "min": [
        -0.9029819965362549,
        -4.536980152130127,
        -0.024323999881744385
      ],
      "type": "VEC3"
    },
    {
      "bufferView": 2,
      "byteOffset": 229992,
      "componentType": 5126,
      "count": 13022,
      "max": [
        0.9999946355819702,
        0.9997983574867249,
        0.9999939203262329
      ],
      "min": [
        -0.999988317489624,
        -0.999765932559967,
        -0.9999935626983643
      ],
      "type": "VEC3"
    },
    {
      "bufferView": 1,
      "byteOffset": 24576,
      "componentType": 5126,
      "count": 13022,
      "max": [
        0.9992930293083191,
        0.9940440058708191
      ],
      "min": [
        0.0005440000095404685,
        0.002216000109910965
      ],
      "type": "VEC2"
    },
    {
      "bufferView": 0,
      "byteOffset": 18432,
      "componentType": 5125,
      "count": 19536,
      "type": "SCALAR"
    },
    {
      "bufferView": 2,
      "byteOffset": 386256,
      "componentType": 5126,
      "count": 2560,
      "max": [
        1.1112509965896606,
        -3.8252809047698975,
        0.623727023601532
      ],
      "min": [
        -0.893455982208252,
        -5.31198787689209,
        -0.007120000198483467
      ],
      "type": "VEC3"
    },
    {
      "bufferView": 2,
      "byteOffset": 416976,
      "componentType": 5126,
      "count": 2560,
      "max": [
        0.998898446559906,
        0.9975940585136414,
        0.9999654293060303
      ],
      "min": [
        -0.9989464282989502,
        -0.9973400831222534,
        -0.9999653100967407
      ],
      "type": "VEC3"
    },
    {
      "bufferView": 1,
      "byteOffset": 128752,
      "componentType": 5126,
      "count": 2560,
      "max": [
        0.24201799929141998,
        0.9929530024528503
      ],
      "min": [
        0.002242000075057149,
        0.02456199936568737
      ],
      "type": "VEC2"
    },
    {
      "bufferView": 0,
      "byteOffset": 96576,
      "componentType": 5125,
      "count": 3840,
      "type": "SCALAR"
    }
  ],
  "asset": {
    "extras": {
      "author": "onsocks (https://sketchfab.com/onsocks)",
      "license": "CC-BY-4.0 (http://creativecommons.org/licenses/by/4.0/)",
      "source": "https://sketchfab.com/3d-models/sock-jamel-03-7a9e79960bb34a619dccb6998a99fe28",
      "title": "Sock Jamel 03"
    },
    "generator": "Sketchfab-12.67.0",
    "version": "2.0"
  },
  "bufferViews": [
    {
      "buffer": 0,
      "byteLength": 111936,
      "name": "floatBufferViews",
      "target": 34963
    },
    {
      "buffer": 0,
      "byteLength": 149232,
      "byteOffset": 111936,
      "byteStride": 8,
      "name": "floatBufferViews",
      "target": 34962
    },
    {
      "buffer": 0,
      "byteLength": 447696,
      "byteOffset": 261168,
      "byteStride": 12,
      "name": "floatBufferViews",
      "target": 34962
    }
  ],
  "buffers": [
    {
      "byteLength": 708864,
      "uri": "scene.bin"
    }
  ],
  "images": [
    {
      "uri": "textures/Material_baseColor.png"
    },
    {
      "uri": "textures/Material_Boord_en_voet.png_baseColor.png"
    },
    {
      "uri": "textures/Material_Teen.png_baseColor.png"
    }
  ],
  "materials": [
    {
      "doubleSided": true,
      "name": "Material",
      "pbrMetallicRoughness": {
        "baseColorTexture": {
          "index": 0
        },
        "metallicFactor": 0.0,
        "roughnessFactor": 0.8434915419926713
      }
    },
    {
      "doubleSided": true,
      "name": "Material_Boord_en_voet.png",
      "pbrMetallicRoughness": {
        "baseColorTexture": {
          "index": 1
        },
        "metallicFactor": 0.0,
        "roughnessFactor": 0.8434915419926713
      }
    },
    {
      "doubleSided": true,
      "name": "Material_Teen.png",
      "pbrMetallicRoughness": {
        "baseColorTexture": {
          "index": 2
        },
        "metallicFactor": 0.0,
        "roughnessFactor": 0.8434915419926713
      }
    }
  ],
  "meshes": [
    {
      "name": "Object_0",
      "primitives": [
        {
          "attributes": {
            "NORMAL": 1,
            "POSITION": 0,
            "TEXCOORD_0": 2
          },
          "indices": 3,
          "material": 0,
          "mode": 4
        }
      ]
    },
    {
      "name": "Object_1",
      "primitives": [
        {
          "attributes": {
            "NORMAL": 5,
            "POSITION": 4,
            "TEXCOORD_0": 6
          },
          "indices": 7,
          "material": 1,
          "mode": 4
        }
      ]
    },
    {
      "name": "Object_2",
      "primitives": [
        {
          "attributes": {
            "NORMAL": 9,
            "POSITION": 8,
            "TEXCOORD_0": 10
          },
          "indices": 11,
          "material": 2,
          "mode": 4
        }
      ]
    }
  ],
  "nodes": [
    {
      "children": [
        1
      ],
      "matrix": [
        1.0,
        0.0,
        0.0,
        0.0,
        0.0,
        2.220446049250313e-16,
        -1.0,
        0.0,
        0.0,
        1.0,
        2.220446049250313e-16,
        0.0,
        0.0,
        0.0,
        0.0,
        1.0
      ],
      "name": "Sketchfab_model"
    },
    {
      "children": [
        2,
        3,
        4
      ],
      "name": "sock.002.obj.cleaner.materialmerger.gles"
    },
    {
      "mesh": 0,
      "name": "Object_2"
    },
    {
      "mesh": 1,
      "name": "Object_3"
    },
    {
      "mesh": 2,
      "name": "Object_4"
    }
  ],
  "samplers": [
    {
      "magFilter": 9729,
      "minFilter": 9987,
      "wrapS": 10497,
      "wrapT": 10497
    }
  ],
  "scene": 0,
  "scenes": [
    {
      "name": "Sketchfab_Scene",
      "nodes": [
        0
      ]
    }
  ],
  "textures": [
    {
      "sampler": 0,
      "source": 0
    },
    {
      "sampler": 0,
      "source": 1
    },
    {
      "sampler": 0,
      "source": 2
    }
  ]
}
