{
  "accessors": [
    {
      "bufferView": 2,
      "componentType": 5126,
      "count": 575,
      "max": [
        5.073585033416748,
        0.5102009773254395,
        -0.0589510016143322
      ],
      "min": [
        -5.116825103759766,
        -0.8302450180053711,
        -4.593413829803467
      ],
      "type": "VEC3"
    },
    {
      "bufferView": 2,
      "byteOffset": 6900,
      "componentType": 5126,
      "count": 575,
      "max": [
        0.8524796962738037,
        0.9998999834060669,
        0.9842079877853394
      ],
      "min": [
        -0.8412534594535828,
        -0.9998832941055298,
        -0.9978578090667725
      ],
      "type": "VEC3"
    },
    {
      "bufferView": 3,
      "componentType": 5126,
      "count": 575,
      "max": [
        -0.35145580768585205,
        0.34440386295318604,
        0.9223912954330444,
        -1.0
      ],
      "min": [
        -0.9962533712387085,
        -0.31500694155693054,
        -0.9149389863014221,
        -1.0
      ],
      "type": "VEC4"
    },
    {
      "bufferView": 1,
      "componentType": 5126,
      "count": 575,
      "max": [
        1.0350719690322876,
        0.6859580278396606
      ],
      "min": [
        0.03809100016951561,
        0.23010699450969696
      ],
      "type": "VEC2"
    },
    {
      "bufferView": 0,
      "componentType": 5125,
      "count": 3168,
      "type": "SCALAR"
    },
    {
      "bufferView": 2,
      "byteOffset": 13800,
      "componentType": 5126,
      "count": 3899,
      "max": [
        6.162477016448975,
        6.586075782775879,
        4.214684963226318
      ],
      "min": [
        -6.291769981384277,
        -5.868169784545898,
        -1.2218199968338013
      ],
      "type": "VEC3"
    },
    {
      "bufferView": 2,
      "byteOffset": 60588,
      "componentType": 5126,
      "count": 3899,
      "max": [
        0.9861054420471191,
        0.989006757736206,
        0.9856113791465759
      ],
      "min": [
        -0.9891669750213623,
        -0.9850024580955505,
        -1.0
      ],
      "type": "VEC3"
    },
    {
      "bufferView": 3,
      "byteOffset": 9200,
      "componentType": 5126,
      "count": 3899,
      "max": [
        0.993503749370575,
        0.9999697208404541,
        0.9866341948509216,
        1.0
      ],
      "min": [
        -0.9997256994247437,
        -0.9978357553482056,
        -0.9982937574386597,
        -1.0
      ],
      "type": "VEC4"
    },
    {
      "bufferView": 1,
      "byteOffset": 4600,
      "componentType": 5126,
      "count": 3899,
      "max": [
        0.9884330034255981,
        0.9911019802093506
      ],
      "min": [
        0.0265089999884367,
        0.007907000370323658
      ],
      "type": "VEC2"
    },
    {
      "bufferView": 0,
      "byteOffset": 12672,
      "componentType": 5125,
      "count": 6534,
      "type": "SCALAR"
    }
  ],
  "asset": {
    "extras": {
      "author": "MushyDay (https://sketchfab.com/MushyDay)",
      "license": "CC-BY-4.0 (http://creativecommons.org/licenses/by/4.0/)",
      "source": "https://sketchfab.com/3d-models/asian-conical-hat-4eed68df8fb84284a91f42a6c6e4569c",
      "title": "Asian Conical Hat"
    },
    "generator": "Sketchfab-12.67.0",
    "version": "2.0"
  },
  "bufferViews": [
    {
      "buffer": 0,
      "byteLength": 38808,
      "name": "floatBufferViews",
      "target": 34963
    },
    {
      "buffer": 0,
      "byteLength": 35792,
      "byteOffset": 38808,
      "byteStride": 8,
      "name": "floatBufferViews",
      "target": 34962
    },
    {
      "buffer": 0,
      "byteLength": 107376,
      "byteOffset": 74600,
      "byteStride": 12,
      "name": "floatBufferViews",
      "target": 34962
    },
    {
      "buffer": 0,
      "byteLength": 71584,
      "byteOffset": 181976,
      "byteStride": 16,
      "name": "floatBufferViews",
      "target": 34962
    }
  ],
  "buffers": [
    {
      "byteLength": 253560,
      "uri": "scene.bin"
    }
  ],
  "images": [
    {
      "uri": "textures/material_baseColor.jpeg"
    },
    {
      "uri": "textures/material_metallicRoughness.png"
    },
    {
      "uri": "textures/material_normal.png"
    },
    {
      "uri": "textures/Hat.rope_baseColor.jpeg"
    },
    {
      "uri": "textures/Hat.rope_metallicRoughness.png"
    },
    {
      "uri": "textures/Hat.rope_normal.png"
    }
  ],
  "materials": [
    {
      "doubleSided": true,
      "name": "material",
      "normalTexture": {
        "index": 2
      },
      "pbrMetallicRoughness": {
        "baseColorTexture": {
          "index": 0
        },
        "metallicFactor": 0.0,
        "metallicRoughnessTexture": {
          "index": 1
        }
      }
    },
    {
      "doubleSided": true,
      "name": "Hat.rope",
      "normalTexture": {
        "index": 5
      },
      "pbrMetallicRoughness": {
        "baseColorTexture": {
          "index": 3
        },
        "metallicFactor": 0.0,
        "metallicRoughnessTexture": {
          "index": 4
        }
      }
    }
  ],
  "meshes": [
    {
      "name": "Object_0",
      "primitives": [
        {
          "attributes": {
            "NORMAL": 1,
            "POSITION": 0,
            "TANGENT": 2,
            "TEXCOORD_0": 3
          },
          "indices": 4,
          "material": 1,
          "mode": 4
        }
      ]
    },
    {
      "name": "Object_1",
      "primitives": [
        {
          "attributes": {
            "NORMAL": 6,
            "POSITION": 5,
            "TANGENT": 7,
            "TEXCOORD_0": 8
          },
          "indices": 9,
          "material": 0,
          "mode": 4
        }
      ]
    }
  ],
  "nodes": [
    {
      "children": [
        1
      ],
      "matrix": [
        1.0,
        0.0,
        0.0,
        0.0,
        0.0,
        2.220446049250313e-16,
        -1.0,
        0.0,
        0.0,
        1.0,
        2.220446049250313e-16,
        0.0,
        0.0,
        0.0,
        0.0,
        1.0
      ],
      "name": "Sketchfab_model"
    },
    {
      "children": [
        2,
        3
      ],
      "name": "29c109cf34514b75977a5e475d9f6322.obj.cleaner.materialmerger.gles"
    },
    {
      "mesh": 0,
      "name": "Object_2"
    },
    {
      "mesh": 1,
      "name": "Object_3"
    }
  ],
  "samplers": [
    {
      "magFilter": 9729,
      "minFilter": 9987,
      "wrapS": 10497,
      "wrapT": 10497
    }
  ],
  "scene": 0,
  "scenes": [
    {
      "name": "Sketchfab_Scene",
      "nodes": [
        0
      ]
    }
  ],
  "textures": [
    {
      "sampler": 0,
      "source": 0
    },
    {
      "sampler": 0,
      "source": 1
    },
    {
      "sampler": 0,
      "source": 2
    },
    {
      "sampler": 0,
      "source": 3
    },
    {
      "sampler": 0,
      "source": 4
    },
    {
      "sampler": 0,
      "source": 5
    }
  ]
}
