{
  "accessors": [
    {
      "bufferView": 2,
      "componentType": 5126,
      "count": 55146,
      "max": [
        0.061461903154850006,
        0.05245532840490341,
        0.1493380069732666
      ],
      "min": [
        -0.061461903154850006,
        -0.05245532840490341,
        -0.1493380069732666
      ],
      "type": "VEC3"
    },
    {
      "bufferView": 2,
      "byteOffset": 661752,
      "componentType": 5126,
      "count": 55146,
      "max": [
        0.9999343752861023,
        0.9999974370002747,
        0.9999838471412659
      ],
      "min": [
        -0.9997676610946655,
        -0.9999937415122986,
        -0.999997079372406
      ],
      "type": "VEC3"
    },
    {
      "bufferView": 1,
      "componentType": 5126,
      "count": 55146,
      "max": [
        0.9992113709449768,
        0.9999736547470093
      ],
      "min": [
        0.00010171016037929803,
        3.902476601069793e-05
      ],
      "type": "VEC2"
    },
    {
      "bufferView": 1,
      "byteOffset": 441168,
      "componentType": 5126,
      "count": 55146,
      "max": [
        0.9992113709449768,
        0.9999736547470093
      ],
      "min": [
        0.00010171016037929803,
        3.902476601069793e-05
      ],
      "type": "VEC2"
    },
    {
      "bufferView": 1,
      "byteOffset": 882336,
      "componentType": 5126,
      "count": 55146,
      "max": [
        0.9992113709449768,
        0.9999736547470093
      ],
      "min": [
        0.00010171016037929803,
        3.902476601069793e-05
      ],
      "type": "VEC2"
    },
    {
      "bufferView": 1,
      "byteOffset": 1323504,
      "componentType": 5126,
      "count": 55146,
      "max": [
        0.9992113709449768,
        0.9999736547470093
      ],
      "min": [
        0.00010171016037929803,
        3.902476601069793e-05
      ],
      "type": "VEC2"
    },
    {
      "bufferView": 1,
      "byteOffset": 1764672,
      "componentType": 5126,
      "count": 55146,
      "max": [
        0.9992113709449768,
        0.9999736547470093
      ],
      "min": [
        0.00010171016037929803,
        3.902476601069793e-05
      ],
      "type": "VEC2"
    },
    {
      "bufferView": 0,
      "componentType": 5125,
      "count": 300000,
      "type": "SCALAR"
    }
  ],
  "asset": {
    "extras": {
      "author": "Bruce (https://sketchfab.com/blockie)",
      "license": "CC-BY-NC-SA-4.0 (http://creativecommons.org/licenses/by-nc-sa/4.0/)",
      "source": "https://sketchfab.com/3d-models/crocs-footwear-33236fedf60e40b499c1390681b172fb",
      "title": "Crocs - Footwear"
    },
    "generator": "Sketchfab-15.17.0",
    "version": "2.0"
  },
  "bufferViews": [
    {
      "buffer": 0,
      "byteLength": 1200000,
      "name": "floatBufferViews",
      "target": 34963
    },
    {
      "buffer": 0,
      "byteLength": 2205840,
      "byteOffset": 1200000,
      "byteStride": 8,
      "name": "floatBufferViews",
      "target": 34962
    },
    {
      "buffer": 0,
      "byteLength": 1323504,
      "byteOffset": 3405840,
      "byteStride": 12,
      "name": "floatBufferViews",
      "target": 34962
    }
  ],
  "buffers": [
    {
      "byteLength": 4729344,
      "uri": "scene.bin"
    }
  ],
  "extensionsUsed": [
    "KHR_materials_unlit"
  ],
  "images": [
    {
      "uri": "textures/material_0_baseColor.jpeg"
    }
  ],
  "materials": [
    {
      "extensions": {
        "KHR_materials_unlit": {}
      },
      "name": "material_0",
      "pbrMetallicRoughness": {
        "baseColorTexture": {
          "index": 0
        },
        "metallicFactor": 0.0
      }
    }
  ],
  "meshes": [
    {
      "name": "Object_0",
      "primitives": [
        {
          "attributes": {
            "NORMAL": 1,
            "POSITION": 0,
            "TEXCOORD_0": 2,
            "TEXCOORD_1": 3,
            "TEXCOORD_2": 4,
            "TEXCOORD_3": 5,
            "TEXCOORD_4": 6
          },
          "indices": 7,
          "material": 0,
          "mode": 4
        }
      ]
    }
  ],
  "nodes": [
    {
      "children": [
        1
      ],
      "matrix": [
        1.0,
        0.0,
        0.0,
        0.0,
        0.0,
        2.220446049250313e-16,
        -1.0,
        0.0,
        0.0,
        1.0,
        2.220446049250313e-16,
        0.0,
        0.0,
        0.0,
        0.0,
        1.0
      ],
      "name": "Sketchfab_model"
    },
    {
      "children": [
        2
      ],
      "name": "root"
    },
    {
      "children": [
        3
      ],
      "matrix": [
        1.0,
        0.0,
        0.0,
        0.0,
        0.0,
        2.220446049250313e-16,
        1.0,
        0.0,
        0.0,
        -1.0,
        2.220446049250313e-16,
        0.0,
        0.0,
        0.0,
        0.0,
        1.0
      ],
      "name": "GLTF_SceneRootNode"
    },
    {
      "children": [
        4
      ],
      "name": "_0"
    },
    {
      "mesh": 0,
      "name": "Object_4"
    }
  ],
  "samplers": [
    {
      "magFilter": 9729,
      "minFilter": 9987,
      "wrapS": 10497,
      "wrapT": 10497
    }
  ],
  "scene": 0,
  "scenes": [
    {
      "name": "Sketchfab_Scene",
      "nodes": [
        0
      ]
    }
  ],
  "textures": [
    {
      "sampler": 0,
      "source": 0
    }
  ]
}
