{
	"asset":{
		"generator":"Khronos glTF Blender I/O v3.6.27",
		"version":"2.0"
	},
	"scene":0,
	"scenes":[
		{
			"name":"Scene",
			"nodes":[
				0
			]
		}
	],
	"nodes":[
		{
			"mesh":0,
			"name":"Cube"
		}
	],
	"materials":[
		{
			"doubleSided":true,
			"name":"Material.004",
			"pbrMetallicRoughness":{
				"baseColorFactor":[
					0.8000000715255737,
					0.34280046820640564,
					0.3153262436389923,
					1
				],
				"metallicFactor":0,
				"roughnessFactor":0.4000000059604645
			}
		},
		{
			"doubleSided":true,
			"name":"Material.001",
			"pbrMetallicRoughness":{
				"baseColorFactor":[
					0.0331021323800087,
					0.0331021323800087,
					0.0331021323800087,
					1
				],
				"metallicFactor":0,
				"roughnessFactor":0.5
			}
		},
		{
			"doubleSided":true,
			"name":"Material.002",
			"pbrMetallicRoughness":{
				"baseColorFactor":[
					1,
					1,
					1,
					1
				],
				"metallicFactor":0,
				"roughnessFactor":0.5
			}
		}
	],
	"meshes":[
		{
			"name":"Cube.001",
			"primitives":[
				{
					"attributes":{
						"POSITION":0,
						"NORMAL":1
					},
					"indices":2,
					"material":0
				},
				{
					"attributes":{
						"POSITION":3,
						"NORMAL":4
					},
					"indices":5,
					"material":1
				},
				{
					"attributes":{
						"POSITION":6,
						"NORMAL":7
					},
					"indices":8,
					"material":2
				}
			]
		}
	],
	"accessors":[
		{
			"bufferView":0,
			"componentType":5126,
			"count":72,
			"max":[
				3.5109360218048096,
				2.7995498180389404,
				0.5879117250442505
			],
			"min":[
				3.4767096042633057,
				2.419745445251465,
				-0.5879117250442505
			],
			"type":"VEC3"
		},
		{
			"bufferView":1,
			"componentType":5126,
			"count":72,
			"type":"VEC3"
		},
		{
			"bufferView":2,
			"componentType":5123,
			"count":108,
			"type":"SCALAR"
		},
		{
			"bufferView":3,
			"componentType":5126,
			"count":1520,
			"max":[
				4.4433698654174805,
				2.9905242919921875,
				1.2466833591461182
			],
			"min":[
				-6.406015396118164,
				-3.1894898414611816,
				-1.2466833591461182
			],
			"type":"VEC3"
		},
		{
			"bufferView":4,
			"componentType":5126,
			"count":1520,
			"type":"VEC3"
		},
		{
			"bufferView":5,
			"componentType":5123,
			"count":3114,
			"type":"SCALAR"
		},
		{
			"bufferView":6,
			"componentType":5126,
			"count":1042,
			"max":[
				4.4433698654174805,
				2.9332447052001953,
				1.322211742401123
			],
			"min":[
				-6.406015396118164,
				-3.1894898414611816,
				-1.322211742401123
			],
			"type":"VEC3"
		},
		{
			"bufferView":7,
			"componentType":5126,
			"count":1042,
			"type":"VEC3"
		},
		{
			"bufferView":8,
			"componentType":5123,
			"count":1956,
			"type":"SCALAR"
		}
	],
	"bufferViews":[
		{
			"buffer":0,
			"byteLength":864,
			"byteOffset":0,
			"target":34962
		},
		{
			"buffer":0,
			"byteLength":864,
			"byteOffset":864,
			"target":34962
		},
		{
			"buffer":0,
			"byteLength":216,
			"byteOffset":1728,
			"target":34963
		},
		{
			"buffer":0,
			"byteLength":18240,
			"byteOffset":1944,
			"target":34962
		},
		{
			"buffer":0,
			"byteLength":18240,
			"byteOffset":20184,
			"target":34962
		},
		{
			"buffer":0,
			"byteLength":6228,
			"byteOffset":38424,
			"target":34963
		},
		{
			"buffer":0,
			"byteLength":12504,
			"byteOffset":44652,
			"target":34962
		},
		{
			"buffer":0,
			"byteLength":12504,
			"byteOffset":57156,
			"target":34962
		},
		{
			"buffer":0,
			"byteLength":3912,
			"byteOffset":69660,
			"target":34963
		}
	],
	"buffers":[
		{
			"byteLength":73572,
			"uri":"data:application/octet-stream;base64,"
		}
	]
}
