{
  "accessors": [
    {
      "name": "santa_hat_1_0_positions",
      "componentType": 5126,
      "count": 24271,
      "min": [
        -0.5985419750213623,
        -0.3605929911136627,
        -0.5654209852218628
      ],
      "max": [
        0.4053789973258972,
        0.34551799297332764,
        0.4027079939842224
      ],
      "type": "VEC3",
      "bufferView": 0,
      "byteOffset": 0
    },
    {
      "name": "santa_hat_1_0_normals",
      "componentType": 5126,
      "count": 24271,
      "min": [
        -0.9999938607215881,
        -0.9999898076057434,
        -0.9996110796928406
      ],
      "max": [
        0.9998736381530762,
        0.9999961853027344,
        0.9999340176582336
      ],
      "type": "VEC3",
      "bufferView": 1,
      "byteOffset": 0
    },
    {
      "name": "santa_hat_1_0_texcoords",
      "componentType": 5126,
      "count": 24271,
      "min": [
        0.009999999776482582,
        0.009999999776482582
      ],
      "max": [
        0.9773790240287781,
        0.8856580257415771
      ],
      "type": "VEC2",
      "bufferView": 2,
      "byteOffset": 0
    },
    {
      "name": "santa_hat_1_0_indices",
      "componentType": 5123,
      "count": 138048,
      "min": [
        0
      ],
      "max": [
        24270
      ],
      "type": "SCALAR",
      "bufferView": 3,
      "byteOffset": 0
    },
    {
      "name": "santa_hat_1_1_positions",
      "componentType": 5126,
      "count": 25677,
      "min": [
        -0.49000999331474304,
        -0.11891499906778336,
        -0.47190800309181213
      ],
      "max": [
        0.3252730071544647,
        0.5863000154495239,
        0.2578040063381195
      ],
      "type": "VEC3",
      "bufferView": 0,
      "byteOffset": 291252
    },
    {
      "name": "santa_hat_1_1_normals",
      "componentType": 5126,
      "count": 25677,
      "min": [
        -0.9999935626983643,
        -0.9998258948326111,
        -0.9993737936019897
      ],
      "max": [
        0.9997285604476929,
        0.9996862411499023,
        0.9999610185623169
      ],
      "type": "VEC3",
      "bufferView": 1,
      "byteOffset": 291252
    },
    {
      "name": "santa_hat_1_1_texcoords",
      "componentType": 5126,
      "count": 25677,
      "min": [
        0.24408100545406342,
        0.4343309998512268
      ],
      "max": [
        0.9550549983978271,
        0.9173099994659424
      ],
      "type": "VEC2",
      "bufferView": 2,
      "byteOffset": 194168
    },
    {
      "name": "santa_hat_1_1_indices",
      "componentType": 5123,
      "count": 146016,
      "min": [
        0
      ],
      "max": [
        25676
      ],
      "type": "SCALAR",
      "bufferView": 3,
      "byteOffset": 276096
    }
  ],
  "asset": {
    "generator": "obj2gltf",
    "version": "2.0"
  },
  "buffers": [
    {
      "name": "hat",
      "byteLength": 2166464,
      "uri": "data:application/octet-stream;base64,"
    }
  ],
  "bufferViews": [
    {
      "name": "bufferView_0",
      "buffer": 0,
      "byteLength": 599376,
      "byteOffset": 0,
      "byteStride": 12,
      "target": 34962
    },
    {
      "name": "bufferView_1",
      "buffer": 0,
      "byteLength": 599376,
      "byteOffset": 599376,
      "byteStride": 12,
      "target": 34962
    },
    {
      "name": "bufferView_2",
      "buffer": 0,
      "byteLength": 399584,
      "byteOffset": 1198752,
      "byteStride": 8,
      "target": 34962
    },
    {
      "name": "bufferView_3",
      "buffer": 0,
      "byteLength": 568128,
      "byteOffset": 1598336,
      "target": 34963
    }
  ],
  "materials": [
    {
      "name": "white",
      "pbrMetallicRoughness": {
        "baseColorFactor": [
          0.5,
          0.5,
          0.5,
          1
        ],
        "metallicFactor": 0,
        "roughnessFactor": 1
      },
      "emissiveFactor": [
        0,
        0,
        0
      ],
      "alphaMode": "OPAQUE",
      "doubleSided": false
    },
    {
      "name": "red",
      "pbrMetallicRoughness": {
        "baseColorFactor": [
          0.5,
          0.5,
          0.5,
          1
        ],
        "metallicFactor": 0,
        "roughnessFactor": 1
      },
      "emissiveFactor": [
        0,
        0,
        0
      ],
      "alphaMode": "OPAQUE",
      "doubleSided": false
    }
  ],
  "meshes": [
    {
      "name": "santa_hat_1",
      "primitives": [
        {
          "attributes": {
            "POSITION": 0,
            "NORMAL": 1,
            "TEXCOORD_0": 2
          },
          "indices": 3,
          "material": 0,
          "mode": 4
        },
        {
          "attributes": {
            "POSITION": 4,
            "NORMAL": 5,
            "TEXCOORD_0": 6
          },
          "indices": 7,
          "material": 1,
          "mode": 4
        }
      ]
    }
  ],
  "nodes": [
    {
      "name": "santa_hat",
      "mesh": 0
    }
  ],
  "scene": 0,
  "scenes": [
    {
      "nodes": [
        0
      ]
    }
  ]
}
