{
  "accessors": [
    {
      "name": "Box03_1_0_positions",
      "componentType": 5126,
      "count": 3183,
      "min": [
        -332.427978515625,
        -56.799896240234375,
        -311.8097839355469
      ],
      "max": [
        -177.26097106933594,
        44.940330505371094,
        -99.21452331542969
      ],
      "type": "VEC3",
      "bufferView": 0,
      "byteOffset": 0
    },
    {
      "name": "Box03_1_0_normals",
      "componentType": 5126,
      "count": 3183,
      "min": [
        -0.9999810457229614,
        -0.9999756813049316,
        -0.9999997019767761
      ],
      "max": [
        0.9986416101455688,
        0.9998642802238464,
        0.9988083243370056
      ],
      "type": "VEC3",
      "bufferView": 1,
      "byteOffset": 0
    },
    {
      "name": "Box03_1_0_texcoords",
      "componentType": 5126,
      "count": 3183,
      "min": [
        -0.6558759808540344,
        -0.6665099859237671
      ],
      "max": [
        1.666509985923767,
        1.2173229455947876
      ],
      "type": "VEC2",
      "bufferView": 2,
      "byteOffset": 0
    },
    {
      "name": "Box03_1_0_indices",
      "componentType": 5123,
      "count": 12864,
      "min": [
        0
      ],
      "max": [
        3182
      ],
      "type": "SCALAR",
      "bufferView": 3,
      "byteOffset": 0
    },
    {
      "name": "Box02_1_0_positions",
      "componentType": 5126,
      "count": 4258,
      "min": [
        -163.55738830566406,
        -56.799896240234375,
        -311.8097839355469
      ],
      "max": [
        -8.390365600585938,
        44.940330505371094,
        -99.21452331542969
      ],
      "type": "VEC3",
      "bufferView": 0,
      "byteOffset": 38196
    },
    {
      "name": "Box02_1_0_normals",
      "componentType": 5126,
      "count": 4258,
      "min": [
        -0.9986416101455688,
        -0.9999756813049316,
        -0.9999997019767761
      ],
      "max": [
        0.9999810457229614,
        0.9998642802238464,
        0.9988083243370056
      ],
      "type": "VEC3",
      "bufferView": 1,
      "byteOffset": 38196
    },
    {
      "name": "Box02_1_0_texcoords",
      "componentType": 5126,
      "count": 4258,
      "min": [
        -0.6415219902992249,
        -0.6629809737205505
      ],
      "max": [
        1.6651779413223267,
        1.2063679695129395
      ],
      "type": "VEC2",
      "bufferView": 2,
      "byteOffset": 25464
    },
    {
      "name": "Box02_1_0_indices",
      "componentType": 5123,
      "count": 12864,
      "min": [
        0
      ],
      "max": [
        4257
      ],
      "type": "SCALAR",
      "bufferView": 3,
      "byteOffset": 25728
    }
  ],
  "asset": {
    "generator": "obj2gltf",
    "version": "2.0"
  },
  "buffers": [
    {
      "name": "mitten",
      "byteLength": 289568,
      "uri": "data:application/octet-stream;base64,"
    }
  ],
  "bufferViews": [
    {
      "name": "bufferView_0",
      "buffer": 0,
      "byteLength": 89292,
      "byteOffset": 0,
      "byteStride": 12,
      "target": 34962
    },
    {
      "name": "bufferView_1",
      "buffer": 0,
      "byteLength": 89292,
      "byteOffset": 89292,
      "byteStride": 12,
      "target": 34962
    },
    {
      "name": "bufferView_2",
      "buffer": 0,
      "byteLength": 59528,
      "byteOffset": 178584,
      "byteStride": 8,
      "target": 34962
    },
    {
      "name": "bufferView_3",
      "buffer": 0,
      "byteLength": 51456,
      "byteOffset": 238112,
      "target": 34963
    }
  ],
  "materials": [
    {
      "name": "default",
      "pbrMetallicRoughness": {
        "baseColorFactor": [
          0.5,
          0.5,
          0.5,
          1
        ],
        "metallicFactor": 0,
        "roughnessFactor": 1
      },
      "emissiveFactor": [
        0,
        0,
        0
      ],
      "alphaMode": "OPAQUE",
      "doubleSided": false
    }
  ],
  "meshes": [
    {
      "name": "Box03_1",
      "primitives": [
        {
          "attributes": {
            "POSITION": 0,
            "NORMAL": 1,
            "TEXCOORD_0": 2
          },
          "indices": 3,
          "material": 0,
          "mode": 4
        }
      ]
    },
    {
      "name": "Box02_1",
      "primitives": [
        {
          "attributes": {
            "POSITION": 4,
            "NORMAL": 5,
            "TEXCOORD_0": 6
          },
          "indices": 7,
          "material": 0,
          "mode": 4
        }
      ]
    }
  ],
  "nodes": [
    {
      "name": "Box03",
      "mesh": 0
    },
    {
      "name": "Box02",
      "mesh": 1
    }
  ],
  "scene": 0,
  "scenes": [
    {
      "nodes": [
        0,
        1
      ]
    }
  ]
}
