{
  "accessors": [
    {
      "name": "Cube_Cube.001-Mesh_0_positions",
      "componentType": 5126,
      "count": 360,
      "min": [
        -0.04707900062203407,
        0.012652000412344933,
        -0.15327699482440948
      ],
      "max": [
        0.08125700056552887,
        0.33316001296043396,
        0.14121399819850922
      ],
      "type": "VEC3",
      "bufferView": 0,
      "byteOffset": 0
    },
    {
      "name": "Cube_Cube.001-Mesh_0_texcoords",
      "componentType": 5126,
      "count": 360,
      "min": [
        0.06976500153541565,
        0.05611100047826767
      ],
      "max": [
        0.9896929860115051,
        0.9833390116691589
      ],
      "type": "VEC2",
      "bufferView": 1,
      "byteOffset": 0
    },
    {
      "name": "Cube_Cube.001-Mesh_0_indices",
      "componentType": 5123,
      "count": 1896,
      "min": [
        0
      ],
      "max": [
        359
      ],
      "type": "SCALAR",
      "bufferView": 2,
      "byteOffset": 0
    }
  ],
  "asset": {
    "generator": "obj2gltf",
    "version": "2.0"
  },
  "buffers": [
    {
      "name": "sock",
      "byteLength": 10992,
      "uri": "data:application/octet-stream;base64,"
    }
  ],
  "bufferViews": [
    {
      "name": "bufferView_0",
      "buffer": 0,
      "byteLength": 4320,
      "byteOffset": 0,
      "byteStride": 12,
      "target": 34962
    },
    {
      "name": "bufferView_1",
      "buffer": 0,
      "byteLength": 2880,
      "byteOffset": 4320,
      "byteStride": 8,
      "target": 34962
    },
    {
      "name": "bufferView_2",
      "buffer": 0,
      "byteLength": 3792,
      "byteOffset": 7200,
      "target": 34963
    }
  ],
  "materials": [
    {
      "name": "Material.001",
      "pbrMetallicRoughness": {
        "baseColorFactor": [
          0.5,
          0.5,
          0.5,
          1
        ],
        "metallicFactor": 0,
        "roughnessFactor": 1
      },
      "emissiveFactor": [
        0,
        0,
        0
      ],
      "alphaMode": "OPAQUE",
      "doubleSided": false
    }
  ],
  "meshes": [
    {
      "name": "Cube_Cube.001-Mesh",
      "primitives": [
        {
          "attributes": {
            "POSITION": 0,
            "TEXCOORD_0": 1
          },
          "indices": 2,
          "material": 0,
          "mode": 4
        }
      ]
    }
  ],
  "nodes": [
    {
      "name": "Cube_Cube.001",
      "mesh": 0
    }
  ],
  "scene": 0,
  "scenes": [
    {
      "nodes": [
        0
      ]
    }
  ]
}
